<svg xmlns="http://www.w3.org/2000/svg" viewBox="0 0 320 50">
  <g transform="translate(5, 2) scale(0.045)">
    <path fill="#ffffff" d="M 135.53 456.30 C 137.35 449.17 134.44 442.52 131.57 434.94 Q 117.27 397.22 112.22 382.34 C 101.07 349.56 93.19 314.49 90.74 278.76 C 88.80 250.52 91.68 222.52 102.44 196.15 Q 109.08 179.86 121.02 167.27 C 133.14 154.49 150.71 146.42 168.22 146.07 Q 184.17 145.76 197.72 149.82 Q 210.99 153.79 220.67 158.35 C 228.28 161.94 239.32 168.08 247.66 173.51 C 276.77 192.46 303.00 215.44 328.01 238.95 C 332.09 242.79 335.55 244.78 340.74 243.02 Q 364.39 235.01 385.98 229.68 Q 443.53 215.47 503.25 216.42 C 552.65 217.21 602.19 226.47 648.50 242.58 C 655.45 245.00 658.68 242.92 664.07 237.93 C 690.18 213.73 716.37 190.97 745.15 172.43 C 779.02 150.62 828.13 131.13 863.85 161.63 C 885.00 179.68 895.76 208.52 898.93 236.52 Q 900.81 253.12 900.50 265.25 Q 899.82 291.22 896.19 312.98 Q 896.06 313.73 892.34 332.52 Q 890.35 342.59 887.70 351.89 Q 879.14 381.86 874.77 393.79 Q 861.29 430.56 857.74 439.96 C 855.43 446.07 853.86 451.98 856.16 457.87 C 857.10 460.28 858.68 464.07 859.78 466.26 C 870.03 486.58 880.44 506.82 889.07 525.69 Q 904.00 558.32 911.71 577.74 Q 917.49 592.34 920.59 602.42 C 923.69 612.49 925.83 620.84 920.66 630.70 C 916.08 639.45 908.62 648.02 903.13 654.14 C 877.13 683.15 848.86 708.07 816.53 731.29 Q 755.99 774.79 688.30 809.06 Q 648.24 829.34 618.75 843.46 Q 595.69 854.50 581.73 859.67 Q 574.87 862.21 570.21 864.06 Q 564.05 866.49 558.54 867.98 C 549.34 870.46 542.71 872.84 534.62 874.58 Q 510.47 879.80 487.34 878.47 Q 479.09 878.00 466.78 875.78 C 455.30 873.72 446.05 871.06 433.80 867.46 Q 426.39 865.28 421.20 863.34 Q 398.99 855.04 387.16 849.82 Q 373.44 843.77 350.74 832.45 Q 331.74 822.97 319.75 817.16 C 259.11 787.74 201.79 752.80 148.48 711.52 Q 142.83 707.13 135.98 701.28 Q 111.87 680.66 88.52 655.22 Q 80.56 646.55 73.75 637.29 C 67.53 628.84 64.99 620.67 68.12 610.37 C 75.45 586.27 85.10 563.70 96.01 539.75 Q 112.05 504.56 130.53 468.47 C 132.53 464.55 134.60 459.92 135.53 456.30 Z M 297.56 291.11 A 1.27 1.26 -52.4 0 0 297.39 289.78 Q 293.02 284.54 287.33 278.98 Q 260.41 252.70 235.65 234.43 Q 222.19 224.50 210.74 217.79 C 200.99 212.07 190.87 207.41 181.02 205.21 C 169.85 202.73 159.66 205.58 154.81 216.56 Q 149.70 228.11 148.11 242.21 C 144.70 272.45 149.16 303.84 156.98 333.84 Q 164.89 364.19 178.48 397.03 Q 180.76 402.53 183.68 407.58 Q 185.05 409.95 187.28 408.08 Q 191.83 404.27 196.67 398.42 Q 217.59 373.14 247.26 342.01 C 261.42 327.14 281.36 308.83 293.26 297.02 Q 296.14 294.17 297.56 291.11 Z M 693.36 291.26 Q 694.78 294.32 697.66 297.16 C 709.56 308.96 729.50 327.25 743.66 342.10 Q 773.34 373.19 794.26 398.44 Q 799.10 404.28 803.65 408.09 Q 805.88 409.96 807.25 407.59 Q 810.16 402.54 812.44 397.04 Q 826.00 364.21 833.89 333.87 C 841.68 303.89 846.12 272.51 842.69 242.29 Q 841.09 228.20 835.98 216.66 C 831.12 205.69 820.94 202.85 809.78 205.33 C 799.93 207.54 789.82 212.20 780.08 217.93 Q 768.64 224.64 755.20 234.57 Q 730.46 252.85 703.58 279.13 Q 697.89 284.69 693.53 289.93 A 1.27 1.26 52.4 0 0 693.36 291.26 Z M 315.69 748.19 C 316.53 736.45 317.54 725.39 320.04 713.81 Q 322.53 702.29 323.84 698.59 Q 333.07 672.46 348.74 654.46 Q 367.30 633.15 383.17 620.91 Q 398.94 608.74 410.26 601.51 Q 424.99 592.11 431.77 587.00 C 439.46 581.20 446.27 572.88 448.09 563.08 C 449.89 553.43 449.38 543.92 448.00 533.83 C 447.32 528.84 445.86 523.36 444.62 518.09 Q 441.20 503.64 433.94 489.55 C 429.82 481.56 423.88 475.28 417.34 469.25 C 403.06 456.08 379.85 453.65 361.46 456.49 Q 353.17 457.76 347.38 459.41 Q 327.25 465.15 307.52 474.51 Q 301.94 477.15 299.78 478.38 C 293.59 481.90 286.79 484.90 280.64 488.47 C 251.14 505.62 224.09 524.30 198.19 545.20 Q 181.19 558.92 162.42 576.58 Q 156.10 582.52 151.67 587.51 C 144.18 595.97 140.16 600.24 135.20 607.95 Q 132.54 612.07 132.37 613.86 C 131.91 618.63 136.35 623.55 139.38 626.74 Q 153.84 641.99 166.15 652.35 Q 198.37 679.45 233.52 702.20 Q 273.36 727.98 315.08 748.53 A 0.42 0.42 0.0 0 0 315.69 748.19 Z M 676.11 748.69 Q 697.10 738.22 721.35 724.58 Q 742.08 712.91 770.50 693.98 Q 789.43 681.38 820.01 656.76 Q 832.69 646.56 848.93 630.17 Q 852.84 626.22 856.83 620.74 Q 860.62 615.53 856.89 609.51 Q 852.23 601.98 848.15 597.43 Q 837.23 585.25 833.36 581.40 Q 801.11 549.36 764.62 523.40 C 739.78 505.73 716.44 490.76 690.49 477.78 Q 670.87 467.96 647.53 460.46 C 630.67 455.05 611.73 453.56 594.98 458.19 C 576.60 463.26 563.24 475.61 555.42 492.42 Q 543.31 518.45 541.70 546.02 C 540.94 559.07 543.28 572.04 553.03 581.36 C 559.70 587.73 566.88 592.48 575.40 597.88 Q 581.05 601.47 599.03 614.41 C 616.98 627.33 633.10 642.82 646.48 660.34 C 659.76 677.72 668.84 698.37 672.40 720.04 Q 674.84 734.92 675.66 748.43 A 0.31 0.31 0.0 0 0 676.11 748.69 Z M 499.65 800.66 C 507.29 800.67 514.73 798.00 521.61 794.66 Q 541.77 784.88 557.77 768.03 Q 565.69 759.70 570.35 747.18 C 574.69 735.52 573.78 722.41 565.97 712.54 Q 560.04 705.04 552.79 701.45 Q 544.64 697.42 539.54 696.14 C 526.64 692.93 513.29 691.62 499.74 691.60 C 486.18 691.59 472.83 692.89 459.93 696.08 Q 454.82 697.35 446.67 701.36 Q 439.41 704.94 433.47 712.43 C 425.64 722.29 424.71 735.40 429.03 747.06 Q 433.67 759.59 441.58 767.93 Q 457.55 784.81 477.69 794.62 C 484.56 797.97 492.01 800.65 499.65 800.66 Z"/>
  </g>
  <text x="58" y="34" font-family="-apple-system, BlinkMacSystemFont, 'Segoe UI', sans-serif" font-size="22" font-weight="600" fill="#ffffff" letter-spacing="-0.3">Lazy Raccoon</text>
</svg>
